<?xml version="1.0" encoding="UTF-8"?><svg xmlns="http://www.w3.org/2000/svg" xmlns:xlink="http://www.w3.org/1999/xlink" data-name="Layer 1" height="347.4" preserveAspectRatio="xMidYMid meet" version="1.0" viewBox="229.5 123.2 323.9 347.4" width="323.9" zoomAndPan="magnify"><g id="change1_1"><path d="M379,202.16c-1.47-1.36,50.85,4.27,77.54,37.56s33.13,67.7,33.13,67.7-31.07-22.26-56.33-11.68C433.3,295.74,405.86,227.25,379,202.16Z" fill="#e25152"/></g><g id="change1_2"><path d="M307.39,266.34s-17.84,72.35,90.16,121.82c0,0-18.68-43.25-3.18-57,0,0-43.12-26.73-59.14-40.37S307.39,266.34,307.39,266.34Z" fill="#e25152"/></g><g id="change2_1"><path d="M407.55,338.8s-178-79.64-154.72-212.6c0,0,120.1-3,188.86,182.34Z" fill="#dcdcdc"/></g><g id="change3_1"><path d="M393.56,331.91l42.71-37.39s8.32,12,5,14.78c-2.29,1.94-34.15,30.26-34.15,30.26Z" fill="#6c364a"/></g><g id="change1_3"><path d="M253.46,177.08s-6.77-28.59-.72-52.41c0,0,23.1,2.6,45.25,11.73Z" fill="#e25152"/></g><g id="change4_1"><path d="M409.4,337.27S475,444.5,553.42,470.61c0,0-31.65-107.68-113.69-160.21Z" fill="#f26522"/></g><g id="change5_1"><path d="M413.67,333.49s18.61,32.32,90.58,81.63c0,0-26.76-67.09-69-100.74Z" fill="#fcb22c"/></g><g id="change6_1"><path d="M416,331.55s18.53,18.87,30.3,18.2c0,0,1.19-19.4-13.34-33.38Z" fill="#feeb81"/></g><g id="change3_2"><circle cx="317.08" cy="204.81" fill="#6c364a" r="28.36"/></g><g id="change7_1"><ellipse cx="317.53" cy="204.41" fill="#7fd0db" rx="21.69" ry="20.79" transform="rotate(-41.55 317.495 204.409)"/></g></svg>